# xmcd CD database file
#
# Track frame offsets:
#	150
#	13574
#	30962
#	47746
#	64127
#	80226
#	96175
#	113794
#	128408
#	139797
#
# Disc length: 2022 seconds
#
# Revision: 0
# Processed by: cddbd v1.5.2PL0 Copyright (c) Steve Scherf et al.
# Submitted via: CDex 1.51
#
DISCID=7b07e40a
DTITLE=Strait, George - The Road Less Traveled
DYEAR=1900
DGENRE=Country
TTITLE0=She'll Leave You With a Smile
TTITLE1=Run
TTITLE2=Stars on the Water
TTITLE3=Living and Living Well
TTITLE4=Real Thing
TTITLE5=Don't Tell Me You're Not In Love
TTITLE6=Road Less Traveled
TTITLE7=Middle Of Nowhere
TTITLE8=Good Time Charley's
TTITLE9=My Life's Been Grand
EXTD=
EXTT0=
EXTT1=
EXTT2=
EXTT3=
EXTT4=
EXTT5=
EXTT6=
EXTT7=
EXTT8=
EXTT9=
PLAYORDER=
